<svg xmlns="http://www.w3.org/2000/svg" width="1139" height="368" viewBox="0 0 1139 368"><g transform="translate(-2705 -271)"><g transform="translate(540 181)"><g transform="translate(2165 90)"><g transform="translate(0)"><g transform="translate(55.836)"><path d="M815.271-350.6,642.687-178.018a122.03,122.03,0,0,1,0-172.583A122.029,122.029,0,0,1,815.271-350.6Z" transform="translate(-606.942 386.347)" fill="#a22739"/><path d="M606.942-49.785,779.525-222.369a122.03,122.03,0,0,1,0,172.584A122.03,122.03,0,0,1,606.942-49.785Z" transform="translate(-606.942 382.04)" fill="#a22739"/></g><ellipse cx="160" cy="157.453" rx="160" ry="157.453" transform="translate(0 31.587)" fill="#f44d64"/><path d="M711.963-207.35,674.4-91.879,614-277.476h75.133Z" transform="translate(-551.277 383.835)" fill="#fff"/><path d="M734.778-277.476,711.963-207.35l-22.832-70.126Z" transform="translate(-551.104 384.795)" fill="#c53349"/><path d="M809.827-277.476,749.479-92.013,711.963-207.35l22.815-70.126Z" transform="translate(-550.929 383.837)" fill="#fff"/><g transform="translate(401.315 123.508)"><path d="M1012.092-143.424q0-12.5-8.781-19.783T971.183-177.05q-23.348-6.558-34.09-14.307Q921.8-202.306,921.8-220.076q0-17.25,14.2-28.047t36.311-10.795a60.246,60.246,0,0,1,26.808,5.785,43.893,43.893,0,0,1,18.336,16.115,42.332,42.332,0,0,1,6.509,23.037h-12.811q0-15.437-10.536-24.815t-28.306-9.378q-17.253,0-27.478,7.709t-10.228,20.123a22.762,22.762,0,0,0,9.2,18.729q9.194,7.244,29.441,12.779t30.682,11.475q10.432,5.941,15.7,14.2a35.542,35.542,0,0,1,5.268,19.524q0,17.769-14.205,28.512t-37.447,10.744a73.435,73.435,0,0,1-29.184-5.682q-13.273-5.681-20.143-15.909a41.06,41.06,0,0,1-6.87-23.45h12.706q0,15.909,11.88,25.1t31.611,9.194q17.56,0,28.2-7.748T1012.092-143.424Z" transform="translate(-917.052 258.918)" fill="#fff"/><path d="M1043.372-250.5a8.284,8.284,0,0,1,2.273-5.9,8.105,8.105,0,0,1,6.2-2.413,8.283,8.283,0,0,1,6.25,2.413,8.184,8.184,0,0,1,2.324,5.9,8.01,8.01,0,0,1-2.324,5.852,8.371,8.371,0,0,1-6.25,2.361,8.191,8.191,0,0,1-6.2-2.361A8.105,8.105,0,0,1,1043.372-250.5Zm14.566,144.058h-12.4V-218.216h12.4Z" transform="translate(-917.052 258.918)" fill="#fff"/><path d="M1137.874-207.679a46.285,46.285,0,0,0-8.368-.723q-11.571,0-19.576,6.456t-11.415,18.75v76.755h-12.293V-218.216h12.087l.206,17.768q9.813-19.835,31.507-19.834a20.359,20.359,0,0,1,8.162,1.343Z" transform="translate(-917.052 258.918)" fill="#fff"/><path d="M1266.57-149.829l20.248-107.023h30.888l-33.367,150.411h-31.2L1228.658-207.06l-24.483,100.619h-31.2l-33.368-150.411H1170.5l20.351,106.816,24.793-106.816h26.239Z" transform="translate(-917.052 258.918)" fill="#fff"/><path d="M1378.635-104.375q-24.588,0-40.031-15.083t-15.444-40.185v-2.893q0-16.836,6.509-30.112a47.782,47.782,0,0,1,18.439-20.455,51.761,51.761,0,0,1,27.221-7.179q22.934,0,36.1,14.462t13.171,41.012v12.19h-71.176q1.446,10.951,8.729,17.561t18.44,6.612q17.251,0,26.962-12.5l14.669,16.425a44.825,44.825,0,0,1-18.181,14.825A59.666,59.666,0,0,1,1378.635-104.375Zm-3.409-91.837a18.653,18.653,0,0,0-14.412,6.019q-5.526,6.018-7.076,17.224h41.529v-2.387q-.208-9.961-5.372-15.409T1375.226-196.212Z" transform="translate(-917.052 258.918)" fill="#fff"/><path d="M1496.794-137.329q0-5.475-5.424-8.626t-17.406-5.63q-39.877-8.368-39.876-33.884,0-14.876,12.346-24.844t32.282-9.969q21.279,0,34.038,10.02t12.759,26.033h-29.856a14.449,14.449,0,0,0-4.132-10.589Q1487.394-199,1478.612-199q-7.542,0-11.673,3.409a10.761,10.761,0,0,0-4.132,8.678q0,4.959,4.7,8.006t15.857,5.268a129.645,129.645,0,0,1,18.8,5.011q23.655,8.678,23.656,30.061,0,15.289-13.119,24.741t-33.884,9.453a59.113,59.113,0,0,1-24.948-5.011,41.835,41.835,0,0,1-17.1-13.739,31.928,31.928,0,0,1-6.2-18.853h28.3q.411,7.956,5.889,12.19t14.668,4.235q8.574,0,12.965-3.254A10.125,10.125,0,0,0,1496.794-137.329Z" transform="translate(-917.052 258.918)" fill="#fff"/><path d="M1575.49-245.7v27.479H1594.6v21.9H1575.49v55.784q0,6.2,2.376,8.885t9.091,2.685a47.52,47.52,0,0,0,8.78-.723v22.624a61.476,61.476,0,0,1-18.078,2.686q-31.4,0-32.023-31.715v-60.226h-16.323v-21.9h16.323V-245.7Z" transform="translate(-917.052 258.918)" fill="#fff"/></g></g><rect width="2" height="260" transform="translate(360.242 68.693)" fill="#fff" opacity="0.349"/></g></g><g transform="translate(6 8)"><g transform="translate(3808 399)"><g fill="none" stroke="#fff" stroke-width="2"><circle cx="15" cy="15" r="15" stroke="none"/><circle cx="15" cy="15" r="14" fill="none"/></g><path d="M3.238-8.736h1.63A4.9,4.9,0,0,0,7.973-9.6a2.716,2.716,0,0,0,1.1-2.228,2.653,2.653,0,0,0-.915-2.257,5.066,5.066,0,0,0-3.015-.7h-1.9Zm0,7.589h-1.7v-14.92h4.25a5.569,5.569,0,0,1,3.76,1.109,3.967,3.967,0,0,1,1.27,3.156,3.7,3.7,0,0,1-.98,2.48A4.459,4.459,0,0,1,7.568-7.86l4.38,6.713H9.928l-4.04-6.4q-.13.019-2.65.038Z" transform="translate(9.315 23.574)" fill="#fff"/></g></g></g></svg>